<svg width="512" height="512" viewBox="0 0 512 512" fill="none" xmlns="http://www.w3.org/2000/svg">
<path fill-rule="evenodd" clip-rule="evenodd" d="M268.672 496.172L268.416 496.215L266.901 496.961L266.474 497.047L266.176 496.961L264.661 496.193C264.434 496.136 264.263 496.179 264.149 496.321L264.064 496.535L263.701 505.665L263.808 506.092L264.021 506.369L266.24 507.948L266.56 508.033L266.816 507.948L269.034 506.369L269.29 506.028L269.376 505.665L269.013 496.556C268.956 496.328 268.842 496.2 268.672 496.172ZM274.304 493.761L274.005 493.804L270.08 495.788L269.866 496.001L269.802 496.236L270.186 505.409L270.293 505.665L270.464 505.836L274.752 507.799C275.022 507.87 275.228 507.813 275.37 507.628L275.456 507.329L274.73 494.231C274.659 493.96 274.517 493.804 274.304 493.761ZM259.05 493.804C258.956 493.747 258.844 493.729 258.737 493.752C258.629 493.776 258.535 493.841 258.474 493.932L258.346 494.231L257.621 507.329C257.635 507.585 257.756 507.756 257.984 507.841L258.304 507.799L262.592 505.815L262.805 505.644L262.869 505.409L263.253 496.236L263.189 495.98L262.976 495.767L259.05 493.804Z" fill="#175CFF"/>
<path fill-rule="evenodd" clip-rule="evenodd" d="M298.667 42.6667C315.641 42.5139 331.98 49.1102 344.091 61.0045C356.201 72.8988 363.09 89.1168 363.243 106.091C363.396 123.065 356.799 139.404 344.905 151.514C333.011 163.625 316.793 170.514 299.819 170.667L295.168 184.597C306.169 191.268 315.717 200.082 323.245 210.516C330.772 220.95 336.126 232.79 338.987 245.333H367.126C372.027 234.103 380.645 224.904 391.532 219.281C402.418 213.658 414.909 211.955 426.903 214.458C438.897 216.962 449.664 223.519 457.392 233.027C465.121 242.535 469.34 254.414 469.34 266.667C469.34 278.919 465.121 290.799 457.392 300.307C449.664 309.815 438.897 316.372 426.903 318.875C414.909 321.378 402.418 319.675 391.532 314.053C380.645 308.43 372.027 299.23 367.126 288H338.966C335.413 303.561 328.037 317.991 317.504 329.984L332.523 345.003C343.929 340.527 356.529 340.115 368.203 343.836C379.878 347.558 389.915 355.185 396.626 365.437C403.338 375.688 406.315 387.938 405.057 400.127C403.799 412.315 398.382 423.698 389.718 432.363C381.053 441.027 369.67 446.444 357.482 447.702C345.293 448.96 333.043 445.983 322.792 439.271C312.54 432.56 304.913 422.523 301.191 410.848C297.47 399.174 297.882 386.574 302.358 375.168L282.432 355.243C270.681 360.154 258.07 362.677 245.334 362.667C230.675 362.667 216.211 359.31 203.051 352.853L184.47 375.168C191.581 388.484 193.756 403.885 190.611 418.649C187.466 433.414 179.203 446.591 167.283 455.853C155.362 465.115 140.552 469.865 125.468 469.265C110.384 468.664 95.9986 462.751 84.8526 452.57C73.7067 442.389 66.5181 428.597 64.5572 413.629C62.5963 398.661 65.9893 383.482 74.1366 370.774C82.2839 358.066 94.661 348.646 109.081 344.18C123.501 339.714 139.035 340.489 152.939 346.368L169.878 326.016C156.54 309.112 149.301 288.199 149.334 266.667C149.334 250.987 153.088 236.203 159.744 223.125L141.227 207.68C130.271 213.17 117.759 214.719 105.795 212.068C93.8315 209.417 83.1455 202.727 75.5347 193.122C67.9238 183.518 63.8524 171.586 64.0051 159.333C64.1579 147.08 68.5255 135.253 76.3735 125.842C84.2214 116.43 95.0709 110.008 107.097 107.656C119.123 105.304 131.593 107.165 142.408 112.926C153.224 118.687 161.725 127.997 166.483 139.29C171.241 150.583 171.965 163.169 168.534 174.933L187.094 190.379C206.366 175.61 230.538 168.73 254.699 171.136L259.35 157.184C248.821 148.995 241.114 137.72 237.307 124.937C233.499 112.154 233.78 98.4999 238.112 85.8842C242.443 73.2686 250.608 62.3215 261.465 54.573C272.322 46.8245 285.329 42.6617 298.667 42.6667ZM128 384C122.342 384 116.916 386.248 112.915 390.248C108.915 394.249 106.667 399.675 106.667 405.333C106.667 410.991 108.915 416.417 112.915 420.418C116.916 424.419 122.342 426.667 128 426.667C133.658 426.667 139.085 424.419 143.085 420.418C147.086 416.417 149.334 410.991 149.334 405.333C149.334 399.675 147.086 394.249 143.085 390.248C139.085 386.248 133.658 384 128 384ZM352 384C349.171 384 346.458 385.124 344.458 387.124C342.457 389.125 341.334 391.838 341.334 394.667C341.334 397.496 342.457 400.209 344.458 402.209C346.458 404.21 349.171 405.333 352 405.333C354.829 405.333 357.542 404.21 359.543 402.209C361.543 400.209 362.667 397.496 362.667 394.667C362.667 391.838 361.543 389.125 359.543 387.124C357.542 385.124 354.829 384 352 384ZM245.334 213.333C231.189 213.333 217.623 218.952 207.621 228.954C197.619 238.956 192 252.522 192 266.667C192 280.812 197.619 294.377 207.621 304.379C217.623 314.381 231.189 320 245.334 320C259.479 320 273.044 314.381 283.046 304.379C293.048 294.377 298.667 280.812 298.667 266.667C298.667 252.522 293.048 238.956 283.046 228.954C273.044 218.952 259.479 213.333 245.334 213.333ZM416 256C413.171 256 410.458 257.124 408.458 259.124C406.457 261.125 405.334 263.838 405.334 266.667C405.334 269.496 406.457 272.209 408.458 274.209C410.458 276.21 413.171 277.333 416 277.333C418.829 277.333 421.542 276.21 423.543 274.209C425.543 272.209 426.667 269.496 426.667 266.667C426.667 263.838 425.543 261.125 423.543 259.124C421.542 257.124 418.829 256 416 256ZM117.334 149.333C114.505 149.333 111.792 150.457 109.791 152.458C107.791 154.458 106.667 157.171 106.667 160C106.667 162.829 107.791 165.542 109.791 167.542C111.792 169.543 114.505 170.667 117.334 170.667C120.163 170.667 122.876 169.543 124.876 167.542C126.877 165.542 128 162.829 128 160C128 157.171 126.877 154.458 124.876 152.458C122.876 150.457 120.163 149.333 117.334 149.333ZM298.667 85.3333C293.009 85.3333 287.583 87.5809 283.582 91.5817C279.581 95.5825 277.334 101.009 277.334 106.667C277.334 112.325 279.581 117.751 283.582 121.752C287.583 125.752 293.009 128 298.667 128C304.325 128 309.751 125.752 313.752 121.752C317.753 117.751 320 112.325 320 106.667C320 101.009 317.753 95.5825 313.752 91.5817C309.751 87.5809 304.325 85.3333 298.667 85.3333Z" fill="#175CFF"/>
</svg>
