<svg width="512" height="512" viewBox="0 0 512 512" fill="none" xmlns="http://www.w3.org/2000/svg">
<path d="M256 396.225L227.2 418.305C223.758 420.95 220.381 421.035 217.067 418.561C213.753 416.086 212.715 412.772 213.952 408.619L225.323 372.673L197.056 352.726C193.6 350.436 192.555 347.279 193.92 343.254C195.285 339.243 198.052 337.238 202.219 337.238H236.139L251.904 286.529L179.435 244.182C172.494 240.271 167.111 234.909 163.285 228.097C159.445 221.284 157.525 213.931 157.525 206.038V89.4299C157.525 79.901 160.889 71.773 167.616 65.0459C174.329 58.333 182.457 54.9766 192 54.9766H320C329.543 54.9766 337.671 58.333 344.384 65.0459C351.111 71.7588 354.475 79.8868 354.475 89.4299V206.038C354.475 213.661 352.42 220.744 348.309 227.286C344.213 233.828 338.688 239.19 331.733 243.371L260.096 286.529L275.861 337.238H309.781C313.949 337.238 316.715 339.25 318.08 343.275C319.445 347.286 318.407 350.436 314.965 352.726L286.699 372.673L298.048 408.619C299.285 412.772 298.247 416.086 294.933 418.561C291.62 421.035 288.242 420.95 284.8 418.305L256 396.225ZM178.88 89.4512V206.038C178.88 210.134 179.904 213.896 181.952 217.323C184 220.737 186.802 223.538 190.357 225.729L245.333 257.899V76.3099H192C188.16 76.3099 185.017 77.5401 182.571 80.0006C180.11 82.461 178.88 85.6255 178.88 89.4512ZM320 76.3099H266.667V257.899L321.643 225.729C325.198 223.538 328 220.737 330.048 217.323C332.096 213.91 333.12 210.141 333.12 206.017V89.4512C333.12 85.6255 331.89 82.4823 329.429 80.0219C326.969 77.5615 323.826 76.3241 320 76.3099Z" fill="#175CFF"/>
</svg>
